<svg width="33" height="32" viewBox="0 0 33 32" fill="none" xmlns="http://www.w3.org/2000/svg">
<g id="Google drive">
<g id="Group">
<path id="Path_21_" d="M7.00117 23.1147L7.98453 24.8203C8.18884 25.1793 8.48298 25.4616 8.82848 25.6672L12.3558 23.1663L12.3622 19.5758L8.8422 17.9899L5.31653 19.5632C5.31583 19.9603 5.41758 20.3576 5.62194 20.7167L7.00117 23.1147Z" fill="#0066DD"/>
<path id="Path_20_" d="M16.5128 12.4094L16.6968 7.73231L13.0008 6.30542C12.6546 6.50978 12.3594 6.79107 12.1538 7.14938L5.62604 18.4108C5.42046 18.7692 5.31723 19.1661 5.31653 19.5632L12.3622 19.5758L16.5128 12.4094Z" fill="#00AD3C"/>
<path id="Path_19_" d="M16.5128 12.4094L19.8986 10.588L20.0466 6.31799C19.701 6.11241 19.3041 6.00922 18.8942 6.00848L14.1544 6C13.7444 5.99926 13.3471 6.11385 13.0009 6.30541L16.5128 12.4094Z" fill="#00831E"/>
<path id="Path_18_" d="M20.6377 19.5906L12.3622 19.5759L8.82849 25.6673C9.174 25.8728 9.57097 25.976 9.98087 25.9768L22.9962 26C23.4061 26.0008 23.8034 25.8862 24.1497 25.6946L24.1634 21.603L20.6377 19.5906Z" fill="#0084FF"/>
<path id="Path_17_" d="M24.1497 25.6947C24.496 25.4903 24.7911 25.209 24.9967 24.8507L25.4079 24.1469L27.374 20.7556C27.5796 20.3973 27.6828 20.0004 27.6835 19.6033L23.6111 17.4604L20.6506 19.5907L24.1497 25.6947Z" fill="#FF4131"/>
<path id="Path_16_" d="M24.1343 12.8073L20.8906 7.16495C20.6863 6.80585 20.3921 6.52352 20.0466 6.31793L16.5128 12.4094L20.6377 19.5906L27.6706 19.6032C27.6713 19.2061 27.5695 18.8087 27.3652 18.4497L24.1343 12.8073Z" fill="#FFBA00"/>
</g>
</g>
</svg>
