<svg width="32" height="32" viewBox="0 0 32 32" fill="none" xmlns="http://www.w3.org/2000/svg">
<g id="Dropbox">
<g id="Group">
<path id="Vector" d="M15.0966 17.5756L8.66019 13.4249C8.45131 13.2902 8.17958 13.3045 7.98597 13.4603L3.65869 16.9426C3.35221 17.1892 3.37708 17.6636 3.70771 17.8768L10.1441 22.0275C10.353 22.1622 10.6247 22.1479 10.8184 21.9921L15.1456 18.5098C15.4521 18.2632 15.4272 17.7888 15.0966 17.5756Z" fill="#1587EA"/>
<path id="Vector_2" d="M16.8545 18.5098L21.1818 21.992C21.3755 22.1478 21.6471 22.1621 21.856 22.0274L28.2925 17.8767C28.6231 17.6635 28.648 17.1892 28.3415 16.9426L24.0142 13.4603C23.8205 13.3045 23.5489 13.2902 23.34 13.4249L16.9036 17.5756C16.573 17.7888 16.5481 18.2632 16.8545 18.5098Z" fill="#1587EA"/>
<path id="Vector_3" d="M15.1456 7.60967L10.8184 4.12743C10.6247 3.97161 10.353 3.95735 10.1441 4.09206L3.70771 8.24274C3.37708 8.45595 3.35221 8.93027 3.65869 9.17689L7.98597 12.6591C8.17964 12.815 8.45131 12.8292 8.66019 12.6945L15.0966 8.54383C15.4272 8.33062 15.4521 7.8563 15.1456 7.60967Z" fill="#1587EA"/>
<path id="Vector_4" d="M28.2924 8.24274L21.856 4.09206C21.6471 3.95735 21.3754 3.97161 21.1818 4.12743L16.8545 7.60967C16.548 7.8563 16.5729 8.33062 16.9035 8.54383L23.34 12.6945C23.5489 12.8292 23.8206 12.815 24.0142 12.6591L28.3415 9.17689C28.6479 8.93021 28.623 8.45589 28.2924 8.24274Z" fill="#1587EA"/>
<path id="Vector_5" d="M15.6847 19.1212L10.8387 22.9867C10.663 23.1268 10.4176 23.1392 10.2288 23.0175L9.0344 22.2472C8.6862 22.0226 8.2276 22.2726 8.2276 22.6869V23.1033C8.2276 23.2863 8.32317 23.456 8.47961 23.5508L15.6941 27.9242C15.8609 28.0253 16.0699 28.0253 16.2366 27.9242L23.4512 23.5508C23.6076 23.456 23.7032 23.2863 23.7032 23.1033V22.7316C23.7032 22.3174 23.2445 22.0674 22.8964 22.2919L21.772 23.017C21.5829 23.139 21.3369 23.1263 21.1613 22.9856L16.3382 19.1218C16.1472 18.9689 15.8759 18.9686 15.6847 19.1212Z" fill="#1587EA"/>
</g>
</g>
</svg>
