<?xml version="1.0" standalone="no"?>
<!DOCTYPE svg PUBLIC "-//W3C//DTD SVG 20010904//EN"
 "http://www.w3.org/TR/2001/REC-SVG-20010904/DTD/svg10.dtd">
<svg version="1.0" xmlns="http://www.w3.org/2000/svg"
 width="33.000000pt" height="32.000000pt" viewBox="0 0 33.000000 32.000000"
 preserveAspectRatio="xMidYMid meet">

<g transform="translate(0.000000,32.000000) scale(0.100000,-0.100000)"
fill="#000000" stroke="none">
<path d="M17 313 c-4 -3 -7 -15 -7 -25 0 -18 2 -18 40 2 22 11 40 23 40 25 0
8 -66 6 -73 -2z"/>
<path d="M104 311 c3 -5 -1 -11 -9 -15 -8 -3 -15 -17 -15 -32 0 -14 -11 -39
-25 -56 -26 -31 -32 -69 -16 -111 8 -21 6 -26 -10 -30 -14 -4 -19 -14 -19 -36
l0 -32 152 3 c139 3 153 5 156 21 3 15 0 18 -17 12 -32 -10 -79 21 -102 69
l-21 43 26 28 c14 15 26 32 26 36 0 18 -20 8 -42 -21 -28 -38 -39 -38 -62 1
-11 18 -14 29 -8 25 16 -10 45 39 37 64 -3 11 -13 20 -21 20 -8 0 -12 5 -9 10
3 6 -1 10 -10 10 -9 0 -14 -4 -11 -9z m76 -238 l25 -26 -40 7 c-49 9 -51 12
-35 31 17 20 21 19 50 -12z"/>
<path d="M265 295 c28 -14 51 -25 53 -25 2 0 2 10 0 23 -3 19 -10 22 -53 25
l-50 2 50 -25z"/>
</g>
</svg>
