<svg width="33" height="32" viewBox="0 0 33 32" fill="none" xmlns="http://www.w3.org/2000/svg">
<g id="link-m" clip-path="url(#clip0_1_6748)">
<path id="Vector" d="M26.7521 21.126L24.1891 18.563L26.7521 16C29.5832 13.169 29.5832 8.57896 26.7521 5.74793C23.9211 2.91691 19.331 2.91691 16.5 5.74793L13.937 8.31096L11.374 5.74793L13.937 3.18492C18.1834 -1.06164 25.0685 -1.06164 29.3151 3.18492C33.5616 7.43147 33.5616 14.3165 29.3151 18.563L26.7521 21.126ZM21.626 26.2522L19.063 28.8152C14.8165 33.0616 7.93145 33.0616 3.68492 28.8152C-0.561639 24.5685 -0.561639 17.6835 3.68492 13.437L6.24793 10.874L8.81094 13.437L6.24793 16C3.41689 18.831 3.41689 23.4211 6.24793 26.2522C9.07896 29.083 13.6689 29.083 16.5 26.2522L19.063 23.689L21.626 26.2522ZM21.626 8.31096L24.1891 10.874L11.374 23.689L8.81094 21.126L21.626 8.31096Z" fill="white" fill-opacity="0.7"/>
</g>
<defs>
<clipPath id="clip0_1_6748">
<rect width="32" height="32" fill="white" transform="translate(0.5)"/>
</clipPath>
</defs>
</svg>
