<svg width="32" height="32" viewBox="0 0 32 32" fill="none" xmlns="http://www.w3.org/2000/svg">
<g id="notion-fill">
<path id="Vector" d="M8.13853 7.87971C8.91672 8.5119 9.20864 8.46366 10.6698 8.36618L24.4456 7.53899C24.7377 7.53899 24.4948 7.24751 24.3975 7.19907L22.1096 5.54514C21.6712 5.2048 21.0871 4.81504 19.9677 4.91254L6.62867 5.88546C6.1422 5.9337 6.04503 6.17691 6.23879 6.3719L8.13853 7.87971ZM8.96563 11.0901V25.5846C8.96563 26.3635 9.35491 26.655 10.2311 26.6067L25.3707 25.7307C26.2472 25.6826 26.3448 25.1468 26.3448 24.514V10.1168C26.3448 9.48502 26.1019 9.1443 25.5652 9.19294L9.7442 10.1168C9.16036 10.1659 8.96563 10.4579 8.96563 11.0901ZM23.9113 11.8676C24.0084 12.3059 23.9113 12.7436 23.4724 12.7929L22.7428 12.9382V23.639C22.1096 23.9794 21.5255 24.174 21.0388 24.174C20.2596 24.174 20.0645 23.9306 19.4809 23.2014L14.7095 15.7107V22.9582L16.2193 23.2989C16.2193 23.2989 16.2193 24.174 15.0012 24.174L11.643 24.3688C11.5454 24.174 11.643 23.688 11.9836 23.5906L12.8599 23.3478V13.7654L11.6432 13.6679C11.5456 13.2297 11.7886 12.5979 12.4706 12.5489L16.0732 12.306L21.0388 19.8941V13.1815L19.7728 13.0361C19.6756 12.5004 20.0645 12.1115 20.5513 12.0632L23.9113 11.8676ZM5.50868 4.57222L19.3835 3.55047C21.0873 3.40432 21.5257 3.50222 22.5967 4.28015L27.0256 7.39306C27.7564 7.92835 28 8.0741 28 8.65763V25.7307C28 26.8007 27.6103 27.4335 26.2475 27.5303L10.1347 28.5034C9.11168 28.5522 8.6248 28.4063 8.08907 27.725L4.82747 23.4933C4.24303 22.7143 4 22.1315 4 21.4498V6.27402C4 5.39899 4.38989 4.66911 5.50868 4.57222Z" fill="white"/>
</g>
</svg>
