<svg xmlns="http://www.w3.org/2000/svg" width="21" height="22" viewBox="0 0 21 22" fill="none">
  <path d="M13.4153 5.71753L10.3333 2.6355L7.25128 5.71753L6.43878 4.90112L10.3333 1.00659L14.2278 4.90112L13.4153 5.71753Z" fill="#B8C4D6" stroke="#B8C4D6" stroke-width="0.5"/>
  <path d="M10.9153 1.81909H9.75128V14.03H10.9153V1.81909Z" fill="#B8C4D6" stroke="#B8C4D6" stroke-width="0.5"/>
  <path d="M16.1458 21.0066H4.52081C3.53253 21.0066 2.77472 20.2488 2.77472 19.2605V8.79565C2.77472 7.80737 3.52863 7.04956 4.52081 7.04956H8.59113V8.21362H4.52081C4.17316 8.21362 3.93878 8.448 3.93878 8.79565V19.2605C3.93878 19.6082 4.17316 19.8425 4.52081 19.8425H16.1497C16.4974 19.8425 16.7318 19.6082 16.7318 19.2605V8.79565C16.7318 8.448 16.4974 8.21362 16.1497 8.21362H12.0794V7.04956H16.1497C17.138 7.04956 17.8958 7.80347 17.8958 8.79565V19.2605C17.8919 20.2488 17.1341 21.0066 16.1458 21.0066Z" fill="#B8C4D6" stroke="#B8C4D6" stroke-width="0.5"/>
</svg>